<?xml version="1.0" encoding="UTF-8" standalone="no"?>
<!-- Created with Inkscape (http://www.inkscape.org/) -->

<svg
   width="74.579895mm"
   height="23.061489mm"
   viewBox="0 0 74.579895 23.061489"
   version="1.1"
   id="svg1"
   inkscape:version="1.3.2 (091e20e, 2023-11-25, custom)"
   sodipodi:docname="logo-full-text.svg"
   xmlns:inkscape="http://www.inkscape.org/namespaces/inkscape"
   xmlns:sodipodi="http://sodipodi.sourceforge.net/DTD/sodipodi-0.dtd"
   xmlns="http://www.w3.org/2000/svg"
   xmlns:svg="http://www.w3.org/2000/svg">
  <sodipodi:namedview
     id="namedview1"
     pagecolor="#ffffff"
     bordercolor="#000000"
     borderopacity="0.25"
     inkscape:showpageshadow="2"
     inkscape:pageopacity="0.0"
     inkscape:pagecheckerboard="0"
     inkscape:deskcolor="#d1d1d1"
     inkscape:document-units="mm"
     showguides="true"
     showgrid="false"
     inkscape:zoom="1.4142136"
     inkscape:cx="345.77521"
     inkscape:cy="31.466251"
     inkscape:window-width="1920"
     inkscape:window-height="991"
     inkscape:window-x="-9"
     inkscape:window-y="-9"
     inkscape:window-maximized="1"
     inkscape:current-layer="layer2">
    <inkscape:grid
       id="grid2"
       units="mm"
       originx="-12.203685"
       originy="-50.634605"
       spacingx="0.99999998"
       spacingy="1"
       empcolor="#0099e5"
       empopacity="0.30196078"
       color="#0099e5"
       opacity="0.14901961"
       empspacing="5"
       dotted="false"
       gridanglex="30"
       gridanglez="30"
       visible="false" />
  </sodipodi:namedview>
  <defs
     id="defs1">
    <inkscape:path-effect
       effect="powerstroke"
       id="path-effect5"
       is_visible="true"
       lpeversion="1.3"
       scale_width="1"
       interpolator_type="CubicBezierJohan"
       interpolator_beta="0.2"
       start_linecap_type="zerowidth"
       end_linecap_type="zerowidth"
       offset_points="0,4.9921382"
       linejoin_type="extrp_arc"
       miter_limit="4"
       not_jump="false"
       sort_points="true"
       message="&lt;b&gt;Ctrl + click&lt;/b&gt; on existing node and move it" />
    <inkscape:path-effect
       effect="powerstroke"
       id="path-effect2"
       is_visible="true"
       lpeversion="1.3"
       scale_width="1"
       interpolator_type="CubicBezierJohan"
       interpolator_beta="0.2"
       start_linecap_type="zerowidth"
       end_linecap_type="zerowidth"
       offset_points="0,4.9921382"
       linejoin_type="extrp_arc"
       miter_limit="4"
       not_jump="false"
       sort_points="true"
       message="&lt;b&gt;Ctrl + click&lt;/b&gt; on existing node and move it" />
    <inkscape:path-effect
       effect="fill_between_many"
       method="bsplinespiro"
       autoreverse="false"
       close="false"
       join="false"
       linkedpaths="#path2,0,1"
       id="path-effect3"
       is_visible="true"
       lpeversion="0" />
    <inkscape:path-effect
       effect="fill_between_many"
       method="bsplinespiro"
       autoreverse="false"
       close="false"
       join="false"
       linkedpaths="#path5,0,1"
       id="path-effect6"
       is_visible="true"
       lpeversion="0" />
    <inkscape:path-effect
       effect="powerstroke"
       id="path-effect5-2"
       is_visible="true"
       lpeversion="1.3"
       scale_width="1"
       interpolator_type="CubicBezierJohan"
       interpolator_beta="0.2"
       start_linecap_type="zerowidth"
       end_linecap_type="zerowidth"
       offset_points="0,4.9921382"
       linejoin_type="extrp_arc"
       miter_limit="4"
       not_jump="false"
       sort_points="true"
       message="&lt;b&gt;Ctrl + click&lt;/b&gt; on existing node and move it" />
    <inkscape:path-effect
       effect="powerstroke"
       id="path-effect5-2-0"
       is_visible="true"
       lpeversion="1.3"
       scale_width="1"
       interpolator_type="CubicBezierJohan"
       interpolator_beta="0.2"
       start_linecap_type="zerowidth"
       end_linecap_type="zerowidth"
       offset_points="0,4.9921382"
       linejoin_type="extrp_arc"
       miter_limit="4"
       not_jump="false"
       sort_points="true"
       message="&lt;b&gt;Ctrl + click&lt;/b&gt; on existing node and move it" />
    <inkscape:path-effect
       effect="powerstroke"
       id="path-effect5-2-0-4"
       is_visible="true"
       lpeversion="1.3"
       scale_width="1"
       interpolator_type="CubicBezierJohan"
       interpolator_beta="0.2"
       start_linecap_type="zerowidth"
       end_linecap_type="zerowidth"
       offset_points="0,4.9921382"
       linejoin_type="extrp_arc"
       miter_limit="4"
       not_jump="false"
       sort_points="true"
       message="&lt;b&gt;Ctrl + click&lt;/b&gt; on existing node and move it" />
    <inkscape:path-effect
       effect="powerstroke"
       id="path-effect5-0"
       is_visible="true"
       lpeversion="1.3"
       scale_width="1"
       interpolator_type="CubicBezierJohan"
       interpolator_beta="0.2"
       start_linecap_type="zerowidth"
       end_linecap_type="zerowidth"
       offset_points="0,4.9921382"
       linejoin_type="extrp_arc"
       miter_limit="4"
       not_jump="false"
       sort_points="true"
       message="&lt;b&gt;Ctrl + click&lt;/b&gt; on existing node and move it" />
  </defs>
  <g
     inkscape:groupmode="layer"
     id="layer2"
     inkscape:label="full-text-SC"
     transform="translate(-143.37109,0.46301992)">
    <path
       d="M 155.58736,17.197916 V 7.4965162 h 5.588 v 0.8537232 h -4.191 v 3.5313096 h 3.80295 v 0.83432 h -3.80295 v 3.628324 h 4.48205 v 0.853723 z m 8.32381,0 V 7.4965162 h 5.58801 v 0.8537232 h -4.191 v 3.5313096 h 3.80294 v 0.83432 h -3.80294 v 3.628324 h 4.48204 v 0.853723 z m 8.32382,0 V 7.4965162 h 2.59998 c 1.03481,0 1.84973,0.258704 2.44475,0.776112 0.59502,0.5044728 0.89253,1.2870524 0.89253,2.3477388 0,0.814917 -0.16816,1.461677 -0.50447,1.94028 -0.33632,0.478603 -0.75672,0.821385 -1.26119,1.028348 -0.50447,0.206963 -1.02187,0.310445 -1.55222,0.310445 h -1.22238 v 3.298476 z m 1.397,-4.074588 h 1.02835 c 0.37512,0 0.71144,-0.07114 1.00895,-0.213431 0.31045,-0.142287 0.55621,-0.388055 0.7373,-0.737306 0.18109,-0.362185 0.27164,-0.860191 0.27164,-1.494016 0,-0.8666581 -0.18109,-1.48108 -0.54327,-1.8432656 -0.34925,-0.3621856 -0.84079,-0.5432784 -1.47462,-0.5432784 h -1.02835 z m 11.33124,4.074588 V 7.4965162 h 1.397 v 9.7013998 z m 6.17008,0 V 8.3502394 H 188.2811 V 7.4965162 h 7.10143 v 0.8537232 h -2.83281 v 8.8476766 z m 14.08645,0.194028 c -1.20298,0 -2.09551,-0.32338 -2.67759,-0.97014 -0.58209,-0.64676 -0.87313,-1.474613 -0.87313,-2.483558 V 7.4965162 h 1.397 v 6.1312848 c 0,0.918399 0.19403,1.623368 0.58209,2.114905 0.38805,0.491537 0.96367,0.737306 1.72685,0.737306 0.80198,0 1.39053,-0.252236 1.76565,-0.756709 0.38806,-0.504473 0.58209,-1.202973 0.58209,-2.095502 V 7.4965162 h 1.02834 v 6.4417298 c 0,0.99601 -0.27811,1.823863 -0.83432,2.483558 -0.54327,0.64676 -1.44227,0.97014 -2.69698,0.97014 z"
       id="text10"
       style="font-size:19.4028px;font-family:'Arsenal SC';-inkscape-font-specification:'Arsenal SC';stroke-width:0.264583"
       aria-label="Keep it u"
       sodipodi:nodetypes="ccccccccccccccccccccccccccccscssssccccsccscsccccccccccccccccsssccssscsccscs" />
    <path
       d="M 135.83047,104.22294 V 88.734634 h 1.47462 v 9.745079 l 1.53282,-1.358196 4.24921,-5.510395 h 1.18357 l -4.42384,5.626812 5.02533,6.985006 h -1.84327 l -4.26861,-5.859644 -1.45521,1.222376 v 4.637268 z"
       id="text8-1"
       style="font-size:19.4028px;font-family:'Arsenal SC';-inkscape-font-specification:'Arsenal SC';stroke-width:0.264583"
       aria-label="K"
       sodipodi:nodetypes="cccccccccccccc"
       transform="translate(8.7312497,-87.047916)" />
    <path
       style="stroke:none;stroke-width:0.264583"
       d="m 60.999676,64.998694 7.998039,0.0029 -3.996097,-4.581746 z"
       id="path5-1"
       inkscape:path-effect="#path-effect5-0"
       inkscape:original-d="m 60.999676,64.998694 7.998039,0.0029 -3.996097,-4.581746 z"
       inkscape:linked-fill="path6"
       transform="matrix(0.47393408,0,0,0.47393408,114.46126,-29.098045)"
       sodipodi:nodetypes="cccc" />
    <path
       d="M 210.83015,22.59847 V 7.4317201 h 3.02684 c 1.26765,0 2.26366,0.329848 2.98803,0.989543 0.73731,0.659695 1.10596,1.6621729 1.10596,3.0074339 0,0.789047 -0.12289,1.45521 -0.36866,1.998488 -0.23283,0.530343 -0.54328,0.957205 -0.93133,1.280585 -0.38805,0.32338 -0.82138,0.556214 -1.29999,0.698501 -0.4786,0.142287 -0.96367,0.213431 -1.45521,0.213431 h -1.59103 v 5.628221 z m 1.47461,-7.793686 h 1.3776 c 0.49154,0 0.94427,-0.09701 1.3582,-0.291042 0.41393,-0.194028 0.74377,-0.530343 0.98954,-1.008945 0.24577,-0.491538 0.36865,-1.164169 0.36865,-2.017892 0,-1.125362 -0.2393,-1.9402789 -0.7179,-2.4447519 -0.4786,-0.504473 -1.1383,-0.756709 -1.97909,-0.756709 h -1.397 z"
       id="text9-2"
       style="font-size:19.4028px;font-family:'Arsenal SC';-inkscape-font-specification:'Arsenal SC';stroke-width:0.264583"
       aria-label="P&#10;"
       sodipodi:nodetypes="ccscscsssccccsscssscc" />
  </g>
</svg>
