<?xml version="1.0" encoding="UTF-8" standalone="no"?>
<!-- Created with Inkscape (http://www.inkscape.org/) -->

<svg
   width="50.20509mm"
   height="80mm"
   viewBox="0 0 50.20509 80"
   version="1.1"
   id="svg1"
   xml:space="preserve"
   inkscape:version="1.3.2 (091e20e, 2023-11-25, custom)"
   sodipodi:docname="logo-initials-only.svg"
   xmlns:inkscape="http://www.inkscape.org/namespaces/inkscape"
   xmlns:sodipodi="http://sodipodi.sourceforge.net/DTD/sodipodi-0.dtd"
   xmlns="http://www.w3.org/2000/svg"
   xmlns:svg="http://www.w3.org/2000/svg"><sodipodi:namedview
     id="namedview1"
     pagecolor="#ffffff"
     bordercolor="#000000"
     borderopacity="0.25"
     inkscape:showpageshadow="2"
     inkscape:pageopacity="0.0"
     inkscape:pagecheckerboard="0"
     inkscape:deskcolor="#d1d1d1"
     inkscape:document-units="mm"
     inkscape:zoom="0.69219276"
     inkscape:cx="180.58553"
     inkscape:cy="228.98246"
     inkscape:window-width="1920"
     inkscape:window-height="991"
     inkscape:window-x="-9"
     inkscape:window-y="-9"
     inkscape:window-maximized="1"
     inkscape:current-layer="layer1" /><defs
     id="defs1"><inkscape:path-effect
       effect="powerstroke"
       id="path-effect5"
       is_visible="true"
       lpeversion="1.3"
       scale_width="1"
       interpolator_type="CubicBezierJohan"
       interpolator_beta="0.2"
       start_linecap_type="zerowidth"
       end_linecap_type="zerowidth"
       offset_points="0,4.9921382"
       linejoin_type="extrp_arc"
       miter_limit="4"
       not_jump="false"
       sort_points="true"
       message="&lt;b&gt;Ctrl + click&lt;/b&gt; on existing node and move it" /></defs><g
     inkscape:label="Layer 1"
     inkscape:groupmode="layer"
     id="layer1"
     transform="translate(-57.150002,-57.150001)"><path
       style="stroke:none;stroke-width:0.264583"
       d="m 60.999676,64.998694 7.998039,0.0029 -3.996097,-4.581746 z"
       id="path5"
       inkscape:path-effect="#path-effect5"
       inkscape:original-d="m 60.999676,64.998694 7.998039,0.0029 -3.996097,-4.581746 z"
       inkscape:linked-fill="path6"
       transform="matrix(1.539578,0,0,1.539578,-36.763757,-35.871068)"
       sodipodi:nodetypes="cccc" /><path
       d="M 60.927502,114.45049 V 64.136622 h 4.790312 v 31.656954 l 4.979376,-4.41211 13.803587,-17.900554 h 3.844834 L 73.974739,91.759648 90.299555,114.45049 H 84.311681 L 70.445073,95.415394 65.717814,99.38629 v 15.0642 z"
       id="text8"
       style="font-size:19.4028px;font-family:'Arsenal SC';-inkscape-font-specification:'Arsenal SC';stroke-width:0.859499"
       aria-label="K"
       sodipodi:nodetypes="cccccccccccccc" /><path
       d="M 84.22303,137.15 V 87.880709 h 9.832709 c 4.117971,0 7.353511,1.071515 9.706631,3.214539 2.39516,2.143024 3.59272,5.399578 3.59272,9.769672 0,2.56322 -0.39921,4.72726 -1.19759,6.4921 -0.75635,1.72282 -1.76485,3.10948 -3.02543,4.15999 -1.26059,1.0505 -2.66826,1.80686 -4.22303,2.26908 -1.554736,0.46222 -3.130488,0.69334 -4.727258,0.69334 H 89.01331 v 18.2833 z m 4.79028,-25.31784 h 4.475144 c 1.59677,0 3.067466,-0.31514 4.41212,-0.94545 1.344656,-0.63031 2.416136,-1.72283 3.214526,-3.27757 0.79839,-1.59676 1.19756,-3.78181 1.19756,-6.55514 0,-3.655739 -0.77736,-6.303003 -2.3321,-7.941787 C 98.425824,91.473429 96.282784,90.65404 93.551472,90.65404 H 89.01331 Z"
       id="text9"
       style="font-size:19.4028px;font-family:'Arsenal SC';-inkscape-font-specification:'Arsenal SC';stroke-width:0.859499"
       aria-label="P&#10;"
       sodipodi:nodetypes="ccscscsssccccsscssscc" /></g></svg>
